<svg xmlns="http://www.w3.org/2000/svg" version="1.1" xmlns:xlink="http://www.w3.org/1999/xlink" xmlns:svgjs="http://svgjs.com/svgjs" width="512" height="512" x="0" y="0" viewBox="0 0 64 64" style="enable-background:new 0 0 512 512" xml:space="preserve" class=""><g><g data-name="Coin Dollar"><circle cx="32" cy="32" r="27" fill="#fc990b" data-original="#fc990b" class=""></circle><path fill="#ffc107" d="M56 32c0 14.912-9.088 27-24 27a27 27 0 0 1 0-54c14.912 0 24 12.088 24 27z" data-original="#fec502" class="" opacity="1"></path><circle cx="32" cy="32" r="22.846" fill="#f88f01" data-original="#f88f01" class=""></circle><path fill="#ffffff" d="M41.52 37.814c0-3.025-1.923-5.738-5.142-7.256a12.587 12.587 0 0 0-4.234-.96 8.579 8.579 0 0 1-2.78-.568 3.388 3.388 0 0 1-2.157-2.844c0-1.872 2.195-3.452 4.793-3.452a5.216 5.216 0 0 1 4.344 2.017 2.363 2.363 0 0 0 3.952-2.592 9.459 9.459 0 0 0-5.933-3.888V16.64a2.363 2.363 0 1 0-4.726 0v1.633c-4.108.907-7.156 4.105-7.156 7.913a8.082 8.082 0 0 0 4.784 7.08 12.357 12.357 0 0 0 4.402 1.034 8.83 8.83 0 0 1 2.696.534c.73.344 2.43 1.324 2.43 2.98 0 1.872-2.195 3.452-4.793 3.452a5.162 5.162 0 0 1-4.382-2.077 2.363 2.363 0 1 0-4.01 2.503 9.387 9.387 0 0 0 6.029 4.037v1.631a2.363 2.363 0 0 0 4.726 0v-1.633c4.108-.907 7.156-4.105 7.156-7.913z" data-original="#dbe2eb" class="" opacity="1"></path></g></g></svg>