<svg xmlns="http://www.w3.org/2000/svg" version="1.1" xmlns:xlink="http://www.w3.org/1999/xlink" xmlns:svgjs="http://svgjs.com/svgjs" width="512" height="512" x="0" y="0" viewBox="0 0 469.333 469.333" style="enable-background:new 0 0 512 512" xml:space="preserve" class=""><g><path d="M277.333 89.144V52.607C277.333-17.536 0-17.536 0 52.607v213.706c0 27.574 43.163 44.763 95.089 50.874C76.096 325.705 64 337.211 64 351.795v64.112c0 35.072 69.76 53.426 138.667 53.426s138.667-18.355 138.667-53.426v-32.233c65.254-1.794 128-19.988 128-53.249V138.09c-.001-44.282-110.497-60.575-192.001-48.946zM138.667 21.333c75.917 0 117.333 21.135 117.333 32 0 10.865-41.417 32-117.333 32s-117.333-21.135-117.333-32c-.001-10.864 41.416-32 117.333-32zM21.333 83.016c25.883 15.578 71.73 23.651 117.333 23.651S230.117 98.594 256 83.016v10.6c-37.069 8.221-64 23.234-64 45.051v6.311c-16.717 2.682-34.762 4.355-53.333 4.355-75.917 0-117.333-21.135-117.333-32V83.016zm192 213.333a91.17 91.17 0 0 0 6.409 3.536 412.107 412.107 0 0 0-6.409-.232v-3.304zm-192-149.333c25.883 15.578 71.73 23.651 117.333 23.651 18.464 0 36.411-1.658 53.333-4.186v53.164c-16.717 2.682-34.762 4.355-53.333 4.355-75.917 0-117.333-21.135-117.333-32v-44.984zm0 119.651v-44.984c25.883 15.578 71.73 23.651 117.333 23.651 18.464 0 36.411-1.658 53.333-4.186v53.164c-16.717 2.682-34.762 4.355-53.333 4.355-75.916 0-117.333-21.136-117.333-32zM320 416c0 10.865-41.417 32-117.333 32S85.333 426.865 85.333 416v-34.318c25.883 15.578 71.73 23.651 117.333 23.651 43.652 0 87.587-7.378 113.971-21.669 1.108.042 2.249.047 3.362.081V416zm-117.333-32c-75.917 0-117.333-21.135-117.333-32 0-10.865 41.417-32 117.333-32S320 341.135 320 352c0 10.865-41.417 32-117.333 32zM448 330.667c0 10.324-37.796 29.708-106.667 31.63V352c0-13.327-10.085-24.099-26.353-32.353 5.216.211 10.448.353 15.686.353 45.603 0 91.451-8.073 117.333-23.651v34.318zm0-64c0 10.865-41.417 32-117.333 32s-117.333-21.135-117.333-32v-34.318C239.216 247.927 285.064 256 330.667 256c45.603 0 91.451-8.073 117.333-23.651v34.318zm0-64c0 10.865-41.417 32-117.333 32s-117.333-21.135-117.333-32v-34.318C239.216 183.927 285.064 192 330.667 192c45.603 0 91.451-8.073 117.333-23.651v34.318zm-117.333-32c-75.917 0-117.333-21.135-117.333-32s41.417-32 117.333-32S448 127.802 448 138.667s-41.417 32-117.333 32z" fill="#000000" data-original="#000000" class=""></path></g></svg>