<svg xmlns="http://www.w3.org/2000/svg" version="1.1" xmlns:xlink="http://www.w3.org/1999/xlink" xmlns:svgjs="http://svgjs.com/svgjs" width="512" height="512" x="0" y="0" viewBox="0 0 60 60" style="enable-background:new 0 0 512 512" xml:space="preserve" class=""><g><path d="M46 36a10 10 0 1 0 10 10 10.011 10.011 0 0 0-10-10Zm0 18a8 8 0 1 1 8-8 8.009 8.009 0 0 1-8 8Z" fill="#000000" data-original="#000000" class=""></path><path d="M51.789 33.268A3.969 3.969 0 0 0 49 28.142V11.858A3.992 3.992 0 0 0 48 4h-3V3a3 3 0 0 0-3-3h-4a3 3 0 0 0-3 3v1H12a3.992 3.992 0 0 0-1 7.858V26.3a1.834 1.834 0 0 0-.6.5C7.274 30.957 0 41.361 0 48.119A11.954 11.954 0 0 0 12 60h34a13.991 13.991 0 0 0 5.789-26.732ZM50 32a1.982 1.982 0 0 1-.091.566A13.837 13.837 0 0 0 38.826 34H18.512a87.068 87.068 0 0 0-2.608-4H48a2 2 0 0 1 2 2Zm-13.779 4a13.91 13.91 0 0 0-2.851 16H23.329A11.7 11.7 0 0 0 24 48.119C24 44.6 22.025 40.1 19.694 36ZM47 12v16H14.485c-.318-.437-.622-.85-.887-1.2a1.834 1.834 0 0 0-.6-.5V12ZM37 3a1 1 0 0 1 1-1h4a1 1 0 0 1 1 1v1h-6ZM10 8a2 2 0 0 1 2-2h36a2 2 0 0 1 0 4H12a2 2 0 0 1-2-2ZM2 48.119C2 41.792 9.654 31.12 12 28c2.346 3.12 10 13.792 10 20.119a10 10 0 0 1-20 0ZM18.652 58a12.014 12.014 0 0 0 3.761-4h12.114a14.09 14.09 0 0 0 4.3 4ZM46 58a12 12 0 1 1 12-12 12.013 12.013 0 0 1-12 12Z" fill="#000000" data-original="#000000" class=""></path><path d="M46 45a1 1 0 1 1 .867-1.5 1 1 0 0 0 1.731-1A2.993 2.993 0 0 0 47 41.2V41a1 1 0 0 0-2 0v.184A2.993 2.993 0 0 0 46 47a1 1 0 1 1-.867 1.5 1 1 0 0 0-1.731 1 2.993 2.993 0 0 0 1.6 1.3v.2a1 1 0 0 0 2 0v-.184A2.993 2.993 0 0 0 46 45ZM43 26a1 1 0 0 0 1-1V15a1 1 0 0 0-2 0v10a1 1 0 0 0 1 1ZM13 55a1 1 0 0 0-1-1 5.948 5.948 0 0 1-6-5.881 1 1 0 0 0-2 0A7.95 7.95 0 0 0 12 56a1 1 0 0 0 1-1Z" fill="#000000" data-original="#000000" class=""></path></g></svg>