<svg xmlns="http://www.w3.org/2000/svg" version="1.1" xmlns:xlink="http://www.w3.org/1999/xlink" xmlns:svgjs="http://svgjs.com/svgjs" width="512" height="512" x="0" y="0" viewBox="0 0 66 66" style="enable-background:new 0 0 512 512" xml:space="preserve" class=""><g><path d="M64.77 35.01c-.15-.62-.3-1.26-.44-1.9-.29-1.31-.59-2.66-1.01-3.9a.96.96 0 0 0-.63-.61c-2.36-.73-5.33-1.63-6.96-2.02-.3-.98-.62-2.19-.94-3.39-.37-1.42-.75-2.88-1.12-3.98-.59-1.76-14.3-4.49-15.69-4.08-7.11 2.13-11.76 3.85-15.87 5.36-1.6.59-3.11 1.14-4.64 1.68-.02.01-.04.03-.06.04-.07.03-.12.07-.18.11-.05.03-.09.07-.13.11-.05.05-.08.11-.12.17-.02.04-.06.07-.07.11-.26.61-.55 1.26-.84 1.91-.5 1.14-1.01 2.3-1.47 3.41-1.63.51-2.94.98-4.19 1.44-1.59.58-3.23 1.18-5.56 1.85l-.06.03-.09.03c-.04.02-.07.05-.1.07-.05.03-.09.06-.13.09l-.06.06c-.03.03-.05.07-.07.1-.03.05-.06.09-.09.14-.01.02-.03.03-.03.05-1.16 2.95-2.17 5.78-2.99 8.4-.17.55-.1 1.15.19 1.65.3.51.79.87 1.37 1 2.79.61 5.46 1.21 8.09 1.8 2.95.66 5.84 1.31 8.77 1.94.07.01.13.02.2.02.13 0 .27-.03.39-.08.44-.2 1.04-.45 1.68-.73.4-.17.81-.35 1.21-.53.17 1.01.95 1.87 2.02 2.08 2.67.52 5.28 1.04 7.89 1.57 3.09.62 6.18 1.24 9.37 1.85h.03c.08.02.17.05.26.05h.09c.27-.03.5-.16.66-.36 6.5-3.4 16.67-9.74 19.68-11.64 1.36-.87 2.01-2.4 1.64-3.9zM41.59 37.6c-1.74-.22-3.31-.43-4.92-.7 5.91-2.49 14.05-5.98 18.4-8.49.79.18 2.17.56 4.04 1.12-2.63 1.31-5.28 2.46-7.86 3.58-3.17 1.37-6.43 2.78-9.66 4.49zm-23.2-2.74c-.72-.04-2.46-.46-4.48-1.01 1.59.32 3.14.64 4.67.97-.14.03-.2.04-.19.04zm-3.21-2.72c.51-1.88 1.64-4.45 2.66-6.75.17-.39.34-.76.5-1.14 3.06.9 11.49 3.28 13.83 3.41.15 1.32.34 3.05.54 4.78.14 1.2.27 2.39.39 3.45-2.9-.59-5.77-1.2-8.69-1.82-3.01-.63-6.05-1.28-9.23-1.93zm38.63-5.24c-4.57 2.57-13.29 6.28-18.82 8.6-.11-1.02-.24-2.14-.37-3.28l-.55-4.87c0-.03-.02-.05-.03-.08 4.57-1.36 15.49-5.85 17.96-6.91.3.97.61 2.15.92 3.32.3 1.11.6 2.25.89 3.22zm-31.03-4.6c4.08-1.5 8.71-3.2 15.75-5.32 1.11-.25 7.45 1.21 11.09 2.3-5.4 2.26-16.01 6.4-17.3 6.45-1.56-.07-7.34-1.6-11.4-2.75.61-.22 1.23-.45 1.86-.68zm-11.71 8.97c.83-.3 1.69-.62 2.65-.94-.3.87-.53 1.69-.65 2.4-.08.5.24.97.72 1.09-1.77-.48-3.74-1.06-5.44-1.58.99-.33 1.87-.65 2.72-.97zm-7.88 9.78a.166.166 0 0 1-.11-.08c-.02-.03-.02-.07-.01-.11.73-2.33 1.62-4.83 2.62-7.43 2.58.81 10.16 3.15 12.47 3.35l.73 7.75c-2.53-.55-5.04-1.11-7.6-1.69-2.63-.58-5.31-1.18-8.1-1.79zm17.95 3.06c-.12.05-.22.1-.34.15l-.73-7.77c.85-.17 1.9-.4 3.14-.69.26.06.53.11.79.17.41.09.82.17 1.24.26-.76 2.25-1.38 4.56-1.85 6.9-.68.3-1.49.65-2.25.98zm4.37 1.43c-.32-.06-.55-.38-.5-.68.48-2.74 1.19-5.46 2.09-8.09 5.87 1.55 9.39 2.12 13.61 2.67l.89 9.31c-2.77-.54-5.48-1.08-8.19-1.62-2.62-.55-5.23-1.07-7.9-1.59zm36.58-8.27c-2.85 1.8-12.15 7.6-18.59 11.06l-.87-9.09c3.12-1.64 6.31-3.02 9.39-4.36 3.16-1.37 6.43-2.79 9.65-4.49.3 1 .54 2.08.78 3.14.14.65.29 1.31.45 1.95.16.67-.15 1.38-.81 1.79z" fill="#000000" data-original="#000000"></path><path d="M61.1 33.55c-.36.11-.34 1.26-.99 2.28-.62 1.03-1.66 1.52-1.6 1.89.03.18.4.31.97.18.56-.12 1.31-.56 1.8-1.35s.55-1.66.41-2.21c-.14-.57-.42-.84-.59-.79zM17.85 29.22c-.46.99-.41 1.92-.05 2.03.37.11.89-.57 1.3-1.45.41-.89.58-1.72.26-1.93s-1.06.36-1.51 1.35zM6.12 38.94c-.14-.71-.02-1.64-.39-1.78-.17-.07-.43.07-.65.41-.22.33-.44.92-.31 1.63.14.74.66 1.25 1.12 1.41.48.17.79-.01.8-.19.02-.19-.13-.38-.25-.62-.12-.22-.25-.53-.32-.86zM28.18 43.23c-.25-.74-.5-1.64-.9-1.62-.19.01-.36.22-.47.58-.1.36-.15.9.07 1.51.22.62.69 1.07 1.13 1.22.44.16.74.02.78-.15.05-.19-.09-.39-.2-.64-.14-.24-.28-.54-.41-.9z" fill="#000000" data-original="#000000"></path></g></svg>