<svg xmlns="http://www.w3.org/2000/svg" version="1.1" xmlns:xlink="http://www.w3.org/1999/xlink" xmlns:svgjs="http://svgjs.com/svgjs" width="512" height="512" x="0" y="0" viewBox="0 0 64 64" style="enable-background:new 0 0 512 512" xml:space="preserve" class=""><g transform="matrix(1,0,0,1,0,0)"><path d="M11 26a1 1 0 0 1-1-1c0-1.654-1.346-3-3-3a1 1 0 1 1 0-2c1.654 0 3-1.346 3-3a1 1 0 1 1 2 0c0 1.654 1.346 3 3 3a1 1 0 1 1 0 2c-1.654 0-3 1.346-3 3a1 1 0 0 1-1 1zm-1.003-5c.38.285.718.623 1.003 1.003.285-.38.623-.718 1.003-1.003A5.017 5.017 0 0 1 11 19.997c-.285.38-.623.718-1.003 1.003zM23 17a1 1 0 0 1-1-1c0-1.654-1.346-3-3-3a1 1 0 1 1 0-2c1.654 0 3-1.346 3-3a1 1 0 1 1 2 0c0 1.654 1.346 3 3 3a1 1 0 1 1 0 2c-1.654 0-3 1.346-3 3a1 1 0 0 1-1 1zm-1.003-5c.38.285.718.623 1.003 1.003.285-.38.623-.718 1.003-1.003A5.017 5.017 0 0 1 23 10.997c-.285.38-.623.718-1.003 1.003zM58 20a1 1 0 0 1-1-1c0-1.654-1.346-3-3-3a1 1 0 1 1 0-2c1.654 0 3-1.346 3-3a1 1 0 1 1 2 0c0 1.654 1.346 3 3 3a1 1 0 1 1 0 2c-1.654 0-3 1.346-3 3a1 1 0 0 1-1 1zm-1.003-5c.38.285.718.623 1.003 1.003.285-.38.623-.718 1.003-1.003A5.017 5.017 0 0 1 58 13.997c-.285.38-.623.718-1.003 1.003zM35 43H13a1 1 0 0 1-.956-1.294l4-13A1 1 0 0 1 17 28h14a1 1 0 0 1 .956.706l4 13A1.002 1.002 0 0 1 35 43zm-20.646-2h19.293l-3.385-11H17.739zM53 30c-.428 0-.823-.276-.956-.706L48.262 17H35a1 1 0 1 1 0-2h14a1 1 0 0 1 .956.706l4 13A1.001 1.001 0 0 1 53 30z" fill="#000000" data-original="#000000" class=""></path><path d="M17.001 30a1 1 0 0 1-.587-1.81l18-13a.999.999 0 1 1 1.171 1.621l-18 13A.997.997 0 0 1 17 30zM31.001 30a1 1 0 0 1-.587-1.81l18-13a.999.999 0 1 1 1.171 1.621l-18 13A.997.997 0 0 1 31 30zM35.001 43a1 1 0 0 1-.587-1.81l18-13a.999.999 0 1 1 1.171 1.621l-18 13A.997.997 0 0 1 35 43z" fill="#000000" data-original="#000000" class=""></path><path d="M45 57H23c-.313 0-.609-.147-.799-.397a1.004 1.004 0 0 1-.163-.877l4-14c.123-.43.516-.726.962-.726h14c.446 0 .839.296.962.726l4 14A1.002 1.002 0 0 1 45 57zm-20.674-2h19.348l-3.428-12H27.754zM62.999 44a1 1 0 0 1-.961-.726L58.246 30H53a1 1 0 1 1 0-2h6c.446 0 .839.296.962.726l4 14A1 1 0 0 1 62.999 44z" fill="#000000" data-original="#000000" class=""></path><path d="M41.001 43a1 1 0 0 1-.587-1.81l18-13a.999.999 0 1 1 1.171 1.621l-18 13A.997.997 0 0 1 41 43zM45.001 57a1 1 0 0 1-.587-1.81l18-13a.999.999 0 1 1 1.171 1.621l-18 13A.997.997 0 0 1 45 57zM23 57H1c-.313 0-.609-.147-.799-.397a1.004 1.004 0 0 1-.163-.877l4-14c.123-.43.516-.726.962-.726h14c.446 0 .839.296.962.726l4 14A1.002 1.002 0 0 1 23 57zM2.326 55h19.348l-3.428-12H5.754z" fill="#000000" data-original="#000000" class=""></path><path d="M5.001 43a1 1 0 0 1-.587-1.81l10.08-7.28a.999.999 0 1 1 1.171 1.621l-10.08 7.28A.997.997 0 0 1 5 43z" fill="#000000" data-original="#000000" class=""></path></g></svg>