<svg xmlns="http://www.w3.org/2000/svg" version="1.1" xmlns:xlink="http://www.w3.org/1999/xlink" xmlns:svgjs="http://svgjs.com/svgjs" width="512" height="512" x="0" y="0" viewBox="0 0 64 64" style="enable-background:new 0 0 512 512" xml:space="preserve" class=""><g><path d="M57.9 51.553A1 1 0 0 0 57 51h-4.382L47.9 41.553A1 1 0 0 0 47 41h-4.382L37.9 31.553A1 1 0 0 0 37 31H27a1 1 0 0 0-.895.553L21.382 41H17a1 1 0 0 0-.895.553L11.382 51H7a1 1 0 0 0-.895.553l-5 10A1 1 0 0 0 2 63h60a1 1 0 0 0 .9-1.447ZM50.382 51H33.618l4-8h8.764ZM42 59.764 38.618 53h6.764Zm-10-10L28.618 43h6.764ZM27.618 33h8.764l4 8H23.618Zm-10 10h8.764l4 8H13.618ZM22 59.764 18.618 53h6.764ZM3.618 61l4-8h8.764l4 8Zm20 0 4-8h8.764l4 8Zm20 0 4-8h8.764l4 8ZM32 29a14 14 0 1 0-14-14 14.015 14.015 0 0 0 14 14Zm0-26a12 12 0 1 1-12 12A12.013 12.013 0 0 1 32 3Z" fill="#000000" data-original="#000000"></path><path d="M32 25a10 10 0 1 0-10-10 10.011 10.011 0 0 0 10 10Zm0-18a8 8 0 1 1-8 8 8.009 8.009 0 0 1 8-8Z" fill="#000000" data-original="#000000"></path><path d="M30 17h-2a3 3 0 0 0 3 3v1h2v-1a3 3 0 0 0 0-6v-2a1 1 0 0 1 1 1h2a3 3 0 0 0-3-3V9h-2v1a3 3 0 0 0 0 6v2a1 1 0 0 1-1-1Zm0-4a1 1 0 0 1 1-1v2a1 1 0 0 1-1-1Zm3 3a1 1 0 0 1 0 2ZM11 40A10 10 0 1 0 1 30a10.011 10.011 0 0 0 10 10Zm0-18a8 8 0 1 1-8 8 8.009 8.009 0 0 1 8-8Z" fill="#000000" data-original="#000000"></path><path d="M9 32H7a3 3 0 0 0 3 3v1h2v-1a3 3 0 0 0 0-6v-2a1 1 0 0 1 1 1h2a3 3 0 0 0-3-3v-1h-2v1a3 3 0 0 0 0 6v2a1 1 0 0 1-1-1Zm0-4a1 1 0 0 1 1-1v2a1 1 0 0 1-1-1Zm3 3a1 1 0 0 1 0 2ZM43 30a10 10 0 1 0 10-10 10.011 10.011 0 0 0-10 10Zm10-8a8 8 0 1 1-8 8 8.009 8.009 0 0 1 8-8Z" fill="#000000" data-original="#000000"></path><path d="M51 32h-2a3 3 0 0 0 3 3v1h2v-1a3 3 0 0 0 0-6v-2a1 1 0 0 1 1 1h2a3 3 0 0 0-3-3v-1h-2v1a3 3 0 0 0 0 6v2a1 1 0 0 1-1-1Zm0-4a1 1 0 0 1 1-1v2a1 1 0 0 1-1-1Zm3 3a1 1 0 0 1 0 2Z" fill="#000000" data-original="#000000"></path></g></svg>